<mxfile host="app.diagrams.net" modified="2021-12-01T02:56:41.058Z" agent="5.0 (Macintosh; Intel Mac OS X 10_15_7) AppleWebKit/537.36 (KHTML, like Gecko) Chrome/96.0.4664.55 Safari/537.36" etag="_FiQroHcjuaNKEs6TR9a" version="15.7.4" type="github">
  <diagram id="C5RBs43oDa-KdzZeNtuy" name="Page-1">
    <mxGraphModel dx="1188" dy="662" grid="1" gridSize="10" guides="1" tooltips="1" connect="1" arrows="1" fold="1" page="1" pageScale="1" pageWidth="827" pageHeight="1169" math="0" shadow="0">
      <root>
        <mxCell id="WIyWlLk6GJQsqaUBKTNV-0" />
        <mxCell id="WIyWlLk6GJQsqaUBKTNV-1" parent="WIyWlLk6GJQsqaUBKTNV-0" />
        <mxCell id="EO888Z2LSfCSHxFameB1-0" value="&amp;lt;&amp;lt;Movie&amp;gt;&amp;gt;" style="rounded=0;whiteSpace=wrap;html=1;" vertex="1" parent="WIyWlLk6GJQsqaUBKTNV-1">
          <mxGeometry x="354" y="50" width="166" height="40" as="geometry" />
        </mxCell>
        <mxCell id="EO888Z2LSfCSHxFameB1-1" value="+rating: Rating&lt;br&gt;+length: Length" style="rounded=0;whiteSpace=wrap;html=1;align=left;" vertex="1" parent="WIyWlLk6GJQsqaUBKTNV-1">
          <mxGeometry x="354" y="90" width="166" height="40" as="geometry" />
        </mxCell>
        <mxCell id="EO888Z2LSfCSHxFameB1-2" value="+&amp;lt;&amp;lt;getMovieRating: string&amp;gt;&amp;gt;&lt;br&gt;+&amp;lt;&amp;lt;getLength: int&amp;gt;&amp;gt;" style="rounded=0;whiteSpace=wrap;html=1;align=left;" vertex="1" parent="WIyWlLk6GJQsqaUBKTNV-1">
          <mxGeometry x="354" y="130" width="166" height="50" as="geometry" />
        </mxCell>
        <mxCell id="EO888Z2LSfCSHxFameB1-3" value="Rating" style="rounded=0;whiteSpace=wrap;html=1;align=center;" vertex="1" parent="WIyWlLk6GJQsqaUBKTNV-1">
          <mxGeometry x="60" y="50" width="120" height="40" as="geometry" />
        </mxCell>
        <mxCell id="EO888Z2LSfCSHxFameB1-4" value="Length" style="rounded=0;whiteSpace=wrap;html=1;align=center;" vertex="1" parent="WIyWlLk6GJQsqaUBKTNV-1">
          <mxGeometry x="640" y="40" width="120" height="40" as="geometry" />
        </mxCell>
        <mxCell id="EO888Z2LSfCSHxFameB1-5" value="&amp;lt;&amp;lt;Comedy&amp;gt;&amp;gt;" style="rounded=0;whiteSpace=wrap;html=1;align=center;" vertex="1" parent="WIyWlLk6GJQsqaUBKTNV-1">
          <mxGeometry x="99" y="280" width="181" height="40" as="geometry" />
        </mxCell>
        <mxCell id="EO888Z2LSfCSHxFameB1-6" value="&amp;lt;&amp;lt;Action&amp;gt;&amp;gt;" style="rounded=0;whiteSpace=wrap;html=1;align=center;" vertex="1" parent="WIyWlLk6GJQsqaUBKTNV-1">
          <mxGeometry x="354" y="280" width="166" height="40" as="geometry" />
        </mxCell>
        <mxCell id="EO888Z2LSfCSHxFameB1-7" value="&amp;lt;&amp;lt;Thriller&amp;gt;&amp;gt;" style="rounded=0;whiteSpace=wrap;html=1;align=center;" vertex="1" parent="WIyWlLk6GJQsqaUBKTNV-1">
          <mxGeometry x="609" y="280" width="151" height="40" as="geometry" />
        </mxCell>
        <mxCell id="EO888Z2LSfCSHxFameB1-8" value="Romantic" style="rounded=0;whiteSpace=wrap;html=1;align=center;" vertex="1" parent="WIyWlLk6GJQsqaUBKTNV-1">
          <mxGeometry x="20" y="800" width="120" height="40" as="geometry" />
        </mxCell>
        <mxCell id="EO888Z2LSfCSHxFameB1-9" value="Slapstick" style="rounded=0;whiteSpace=wrap;html=1;align=center;" vertex="1" parent="WIyWlLk6GJQsqaUBKTNV-1">
          <mxGeometry x="190" y="940" width="116" height="40" as="geometry" />
        </mxCell>
        <mxCell id="EO888Z2LSfCSHxFameB1-10" value="Military" style="rounded=0;whiteSpace=wrap;html=1;align=center;" vertex="1" parent="WIyWlLk6GJQsqaUBKTNV-1">
          <mxGeometry x="306" y="720" width="131" height="40" as="geometry" />
        </mxCell>
        <mxCell id="EO888Z2LSfCSHxFameB1-11" value="Superhero" style="rounded=0;whiteSpace=wrap;html=1;align=center;" vertex="1" parent="WIyWlLk6GJQsqaUBKTNV-1">
          <mxGeometry x="450" y="810" width="120" height="40" as="geometry" />
        </mxCell>
        <mxCell id="EO888Z2LSfCSHxFameB1-12" value="Mystery" style="rounded=0;whiteSpace=wrap;html=1;align=center;" vertex="1" parent="WIyWlLk6GJQsqaUBKTNV-1">
          <mxGeometry x="580" y="700" width="120" height="40" as="geometry" />
        </mxCell>
        <mxCell id="EO888Z2LSfCSHxFameB1-14" value="Psychological" style="rounded=0;whiteSpace=wrap;html=1;align=center;" vertex="1" parent="WIyWlLk6GJQsqaUBKTNV-1">
          <mxGeometry x="635" y="850" width="130" height="40" as="geometry" />
        </mxCell>
        <mxCell id="EO888Z2LSfCSHxFameB1-16" value="+" style="rounded=0;whiteSpace=wrap;html=1;align=left;" vertex="1" parent="WIyWlLk6GJQsqaUBKTNV-1">
          <mxGeometry x="99" y="320" width="181" height="60" as="geometry" />
        </mxCell>
        <mxCell id="EO888Z2LSfCSHxFameB1-17" value="" style="rounded=0;whiteSpace=wrap;html=1;align=center;" vertex="1" parent="WIyWlLk6GJQsqaUBKTNV-1">
          <mxGeometry x="99" y="380" width="181" height="60" as="geometry" />
        </mxCell>
        <mxCell id="EO888Z2LSfCSHxFameB1-18" value="" style="rounded=0;whiteSpace=wrap;html=1;align=left;" vertex="1" parent="WIyWlLk6GJQsqaUBKTNV-1">
          <mxGeometry x="354" y="320" width="166" height="60" as="geometry" />
        </mxCell>
        <mxCell id="EO888Z2LSfCSHxFameB1-19" value="" style="rounded=0;whiteSpace=wrap;html=1;align=center;" vertex="1" parent="WIyWlLk6GJQsqaUBKTNV-1">
          <mxGeometry x="354" y="380" width="166" height="60" as="geometry" />
        </mxCell>
        <mxCell id="EO888Z2LSfCSHxFameB1-20" value="" style="rounded=0;whiteSpace=wrap;html=1;align=center;" vertex="1" parent="WIyWlLk6GJQsqaUBKTNV-1">
          <mxGeometry x="609" y="320" width="151" height="60" as="geometry" />
        </mxCell>
        <mxCell id="EO888Z2LSfCSHxFameB1-21" value="" style="rounded=0;whiteSpace=wrap;html=1;align=center;" vertex="1" parent="WIyWlLk6GJQsqaUBKTNV-1">
          <mxGeometry x="609" y="380" width="151" height="60" as="geometry" />
        </mxCell>
      </root>
    </mxGraphModel>
  </diagram>
</mxfile>
